<svg width="142" height="27" fill="none" xmlns="http://www.w3.org/2000/svg"><path d="M136.077 4.117v16.639h-3.163V4.117h-5.18V1.443h13.496v2.674h-5.153zm-13.759 16.639V1.443h3.163v19.313h-3.163zm-4.558-.774c0 2.444-.49 4.163-1.476 5.163s-2.649 1.499-4.985 1.499c-1.74 0-3.131-.365-4.167-1.094-1.04-.725-1.567-1.693-1.586-2.904l3.104-.013c.045.54.3.954.759 1.238.463.284 1.113.423 1.945.423 1.235 0 2.121-.27 2.662-.806.546-.535.818-1.436.827-2.692l.028-1.656c-.514.715-1.118 1.251-1.804 1.602-.691.351-1.477.527-2.368.527-1.781 0-3.19-.603-4.212-1.814-1.027-1.206-1.54-2.863-1.54-4.965 0-1.995.522-3.606 1.572-4.83 1.049-1.23 2.417-1.842 4.103-1.842 1.031 0 1.913.212 2.644.64a3.742 3.742 0 011.605 1.831V8.25h2.889v11.732zm-2.808-5.52c0-1.291-.304-2.3-.913-3.02-.609-.725-1.459-1.085-2.549-1.085-1.095 0-1.954.374-2.577 1.116-.626.743-.94 1.778-.94 3.097 0 1.329.3 2.355.904 3.075.605.725 1.459 1.085 2.558 1.085 1.041 0 1.886-.392 2.536-1.175.654-.783.981-1.814.981-3.092zm-24.969 6.294V8.25H92.7v2.053c.578-.864 1.254-1.495 2.036-1.89.781-.397 1.731-.595 2.854-.595.94 0 1.74.149 2.403.441a3.505 3.505 0 011.55 1.315c.222.342.381.742.481 1.202.096.454.146 1.256.146 2.399v7.58h-2.917v-6.419c0-1.643-.2-2.737-.605-3.277-.404-.54-1.122-.81-2.153-.81-.673 0-1.277.121-1.804.369a3.001 3.001 0 00-1.246 1.04c-.213.302-.363.684-.445 1.157-.086.468-.127 1.215-.127 2.246v5.695h-2.89zm-7.011 0V8.25h2.89v12.506h-2.89zM82.59 2.848c0-.482.182-.9.541-1.256a1.772 1.772 0 011.286-.527c.513 0 .945.171 1.286.509.34.338.513.765.513 1.274 0 .513-.172.94-.518 1.288-.35.346-.777.522-1.281.522-.5 0-.927-.18-1.286-.536a1.73 1.73 0 01-.54-1.274zM66.81 20.756V8.25h2.717v2.053c.577-.864 1.254-1.495 2.035-1.89.782-.397 1.732-.595 2.854-.595.94 0 1.74.149 2.404.441a3.502 3.502 0 011.55 1.315c.222.342.38.742.48 1.202.096.454.146 1.256.146 2.399v7.58H76.08v-6.419c0-1.643-.2-2.737-.604-3.277-.405-.54-1.123-.81-2.154-.81-.673 0-1.277.121-1.804.369a3.001 3.001 0 00-1.245 1.04c-.214.302-.363.684-.445 1.157-.087.468-.128 1.215-.128 2.246v5.695h-2.89zm-3.98-.774c0 2.444-.492 4.163-1.478 5.163s-2.649 1.499-4.984 1.499c-1.74 0-3.13-.365-4.167-1.094-1.04-.725-1.568-1.693-1.586-2.904l3.104-.013c.045.54.3.954.758 1.238.464.284 1.114.423 1.945.423 1.236 0 2.122-.27 2.663-.806.545-.535.818-1.436.827-2.692l.027-1.656c-.513.715-1.117 1.251-1.804 1.602-.69.351-1.476.527-2.367.527-1.781 0-3.19-.603-4.212-1.814-1.027-1.206-1.54-2.863-1.54-4.965 0-1.995.522-3.606 1.572-4.83 1.05-1.23 2.417-1.842 4.103-1.842 1.031 0 1.913.212 2.644.64a3.738 3.738 0 011.604 1.831V8.25h2.89v11.732zm-2.809-5.52c0-1.291-.304-2.3-.913-3.02-.61-.725-1.459-1.085-2.55-1.085-1.094 0-1.953.374-2.576 1.116-.627.743-.94 1.778-.94 3.097 0 1.329.3 2.355.904 3.075.604.725 1.459 1.085 2.558 1.085 1.04 0 1.886-.392 2.535-1.175.655-.783.982-1.814.982-3.092zm-15.954 6.294V8.25h2.89v12.506h-2.89zm-.382-17.908c0-.482.182-.9.54-1.256a1.772 1.772 0 011.287-.527c.513 0 .945.171 1.286.509.34.338.513.765.513 1.274 0 .513-.172.94-.518 1.288-.35.346-.777.522-1.281.522-.5 0-.927-.18-1.286-.536a1.731 1.731 0 01-.54-1.274zM30.876 18.487l2.4-1.297c.177.626.504 1.103.985 1.427.477.33 1.095.491 1.845.491.65 0 1.159-.148 1.527-.44.368-.298.55-.699.55-1.212 0-.675-.655-1.256-1.968-1.742a14.49 14.49 0 01-1.022-.396c-1.35-.554-2.295-1.117-2.831-1.688-.536-.568-.804-1.265-.804-2.08 0-1.117.44-2.021 1.322-2.72.886-.692 2.054-1.039 3.508-1.039.977 0 1.813.18 2.508.536.695.355 1.204.86 1.522 1.521l-2.049 1.4a1.87 1.87 0 00-.79-.945 2.43 2.43 0 00-1.31-.351c-.549 0-.99.13-1.322.387-.331.261-.5.608-.5 1.04 0 .648.746 1.242 2.232 1.778.472.166.836.306 1.09.41 1.163.459 1.995.972 2.5 1.548.5.576.75 1.297.75 2.157 0 1.251-.46 2.228-1.373 2.935-.914.706-2.172 1.062-3.78 1.062-1.232 0-2.259-.23-3.072-.684-.818-.46-1.454-1.157-1.918-2.098zm-1.423-3.565H19.366c.073 1.17.422 2.084 1.054 2.741.627.657 1.468.986 2.517.986.932 0 1.709-.194 2.327-.58.622-.388 1.163-1.014 1.627-1.878l2.426 1.346c-.709 1.26-1.586 2.193-2.635 2.81-1.045.616-2.277.922-3.685.922-2.027 0-3.636-.612-4.835-1.832-1.195-1.225-1.795-2.854-1.795-4.893 0-1.963.618-3.57 1.858-4.835 1.236-1.26 2.827-1.891 4.771-1.891 2.032 0 3.617.576 4.753 1.729 1.136 1.147 1.704 2.764 1.704 4.834v.54zm-2.999-1.918c-.113-.896-.459-1.58-1.035-2.048-.578-.473-1.368-.707-2.368-.707-.95 0-1.713.23-2.29.684-.572.46-.977 1.148-1.209 2.07h6.902zM10.424.31h2.89v20.446h-2.89V19.14c-.514.715-1.118 1.251-1.804 1.602-.69.351-1.477.527-2.368.527-1.78 0-3.19-.603-4.212-1.814C1.013 18.249.5 16.592.5 14.49c0-1.995.523-3.606 1.572-4.83 1.05-1.23 2.417-1.842 4.103-1.842 1.032 0 1.913.212 2.645.64a3.738 3.738 0 011.604 1.831V.31zm.082 14.153c0-1.292-.305-2.3-.914-3.021-.609-.725-1.458-1.085-2.549-1.085-1.095 0-1.954.374-2.576 1.116-.627.743-.94 1.778-.94 3.097 0 1.329.299 2.355.904 3.075.604.725 1.458 1.085 2.558 1.085 1.045 0 1.894-.392 2.544-1.17.645-.78.973-1.81.973-3.097z" fill="#fff"/></svg>