<svg width="188" height="33" fill="none"><path fill-rule="evenodd" clip-rule="evenodd" d="M.866 0H26.52l11.822 16.288L26.52 32.236H.866v-20.79h8.22V24.16h12.567l6.079-7.952-6.079-8.131H.866V0z" fill="#FC0"/><path d="M182.077 8.727v16.824h-3.163V8.727h-5.18V6.024h13.496v2.703h-5.153zM168.318 25.55V6.025h3.163V25.55h-3.163zm-4.558-.782c0 2.471-.49 4.21-1.476 5.22-.986 1.011-2.649 1.517-4.985 1.517-1.74 0-3.131-.37-4.167-1.107-1.04-.732-1.567-1.711-1.586-2.935l3.104-.014c.045.546.3.965.759 1.252.463.286 1.113.427 1.945.427 1.235 0 2.121-.273 2.662-.814.546-.542.818-1.452.827-2.722l.028-1.675c-.514.723-1.118 1.265-1.804 1.62-.691.355-1.477.533-2.368.533-1.781 0-3.19-.61-4.212-1.835-1.027-1.22-1.54-2.894-1.54-5.02 0-2.017.522-3.646 1.572-4.884 1.049-1.243 2.417-1.862 4.103-1.862 1.031 0 1.913.214 2.644.647a3.77 3.77 0 011.605 1.852v-2.062h2.889v11.862zm-2.808-5.58c0-1.307-.304-2.326-.913-3.055-.609-.733-1.459-1.097-2.549-1.097-1.095 0-1.954.378-2.577 1.13-.626.75-.94 1.797-.94 3.13 0 1.344.3 2.381.904 3.11.605.733 1.459 1.097 2.558 1.097 1.041 0 1.886-.396 2.536-1.188.654-.793.981-1.835.981-3.127zm-24.969 6.362V12.907h2.717v2.076c.577-.874 1.254-1.511 2.036-1.912.782-.4 1.731-.6 2.854-.6.94 0 1.74.15 2.403.445a3.51 3.51 0 011.55 1.33c.222.345.381.75.481 1.215.096.46.146 1.27.146 2.426v7.665h-2.917V19.06c0-1.661-.2-2.767-.605-3.314-.404-.546-1.122-.819-2.154-.819-.672 0-1.276.123-1.803.373-.528.25-.946.601-1.246 1.052-.213.305-.363.692-.445 1.17-.086.473-.127 1.229-.127 2.27v5.759h-2.89zm-7.011 0V12.907h2.89v12.645h-2.89zm-.382-18.106c0-.487.182-.91.541-1.27a1.762 1.762 0 011.286-.533c.513 0 .945.173 1.286.515.341.341.513.774.513 1.288 0 .519-.172.951-.518 1.302-.35.35-.777.528-1.281.528-.5 0-.927-.182-1.286-.542a1.76 1.76 0 01-.541-1.288zM112.81 25.55V12.907h2.717v2.076c.577-.874 1.254-1.511 2.035-1.912.782-.4 1.732-.6 2.854-.6.941 0 1.74.15 2.404.445.659.3 1.177.742 1.549 1.33.223.345.382.75.482 1.215.095.46.145 1.27.145 2.426v7.665h-2.917V19.06c0-1.661-.2-2.767-.604-3.314-.405-.546-1.123-.819-2.154-.819-.673 0-1.277.123-1.804.373-.527.25-.945.601-1.245 1.052-.214.305-.363.692-.445 1.17-.087.473-.128 1.229-.128 2.27v5.759h-2.889zm-3.981-.782c0 2.471-.491 4.21-1.477 5.22-.986 1.011-2.649 1.517-4.984 1.517-1.741 0-3.13-.37-4.167-1.107-1.04-.732-1.568-1.711-1.586-2.935l3.104-.014c.045.546.3.965.759 1.252.463.286 1.113.427 1.944.427 1.236 0 2.122-.273 2.663-.814.545-.542.818-1.452.827-2.722l.027-1.675c-.513.723-1.117 1.265-1.804 1.62-.69.355-1.476.533-2.367.533-1.781 0-3.19-.61-4.212-1.835-1.027-1.22-1.54-2.894-1.54-5.02 0-2.017.522-3.646 1.572-4.884 1.05-1.243 2.417-1.862 4.103-1.862 1.031 0 1.913.214 2.644.647a3.764 3.764 0 011.604 1.852v-2.062h2.89v11.862zm-2.808-5.58c0-1.307-.304-2.326-.913-3.055-.609-.733-1.459-1.097-2.549-1.097-1.095 0-1.954.378-2.577 1.13-.627.75-.94 1.797-.94 3.13 0 1.344.3 2.381.904 3.11.604.733 1.458 1.097 2.558 1.097 1.041 0 1.886-.396 2.536-1.188.654-.793.981-1.835.981-3.127zM90.067 25.55V12.907h2.89v12.645h-2.89zm-.382-18.106c0-.487.182-.91.54-1.27a1.763 1.763 0 011.287-.533c.513 0 .945.173 1.286.515.34.341.513.774.513 1.288 0 .519-.173.951-.518 1.302-.35.35-.777.528-1.281.528-.5 0-.927-.182-1.286-.542a1.76 1.76 0 01-.54-1.288zM76.876 23.257l2.4-1.311c.177.632.504 1.115.985 1.443.478.332 1.095.496 1.845.496.65 0 1.159-.15 1.527-.446.368-.3.55-.706.55-1.225 0-.682-.655-1.27-1.968-1.761a14.65 14.65 0 01-1.022-.4c-1.35-.56-2.295-1.13-2.831-1.708-.536-.573-.804-1.279-.804-2.102 0-1.13.44-2.044 1.322-2.75.886-.7 2.054-1.051 3.508-1.051.977 0 1.813.182 2.508.542.695.36 1.204.869 1.522 1.538l-2.049 1.415c-.15-.4-.413-.719-.79-.955a2.41 2.41 0 00-1.31-.355c-.549 0-.99.132-1.322.391-.331.264-.5.615-.5 1.052 0 .655.746 1.256 2.232 1.798.472.168.836.309 1.09.414 1.163.464 1.995.983 2.5 1.566.5.582.75 1.31.75 2.18 0 1.265-.46 2.253-1.373 2.968-.914.714-2.172 1.074-3.78 1.074-1.232 0-2.259-.232-3.072-.692-.818-.464-1.454-1.17-1.918-2.121zm-1.423-3.605H65.366c.073 1.183.422 2.107 1.054 2.772.627.664 1.468.997 2.518.997.931 0 1.708-.196 2.326-.587.622-.392 1.163-1.025 1.627-1.899l2.426 1.361c-.709 1.275-1.586 2.217-2.635 2.84-1.046.624-2.277.934-3.686.934-2.026 0-3.634-.62-4.834-1.853-1.195-1.238-1.795-2.886-1.795-4.947 0-1.985.618-3.61 1.858-4.89 1.237-1.274 2.827-1.91 4.772-1.91 2.03 0 3.617.582 4.752 1.747 1.136 1.16 1.704 2.795 1.704 4.888v.547zm-2.999-1.94c-.113-.905-.458-1.597-1.035-2.07-.578-.478-1.368-.715-2.368-.715-.95 0-1.713.232-2.29.692-.572.464-.977 1.16-1.209 2.094h6.902zM56.424 4.877h2.89V25.55h-2.89v-1.634c-.514.723-1.118 1.265-1.804 1.62-.69.355-1.477.533-2.368.533-1.78 0-3.19-.61-4.212-1.835-1.027-1.22-1.54-2.894-1.54-5.02 0-2.017.523-3.646 1.572-4.884 1.05-1.243 2.417-1.862 4.103-1.862 1.032 0 1.913.214 2.645.647a3.767 3.767 0 011.604 1.852V4.877zm.082 14.31c0-1.306-.305-2.325-.914-3.054-.609-.732-1.458-1.097-2.549-1.097-1.095 0-1.954.378-2.576 1.13-.627.75-.94 1.797-.94 3.13 0 1.344.299 2.381.904 3.11.604.733 1.458 1.097 2.558 1.097 1.045 0 1.895-.396 2.544-1.184.645-.787.973-1.83.973-3.131z" fill="#fff"/></svg>