<svg width="21" height="21" fill="none" xmlns="http://www.w3.org/2000/svg"><g clip-path="url(#clip0)" fill="#000"><path d="M14.002 10.921a40.377 40.377 0 012.182 7.647 10.082 10.082 0 001.88-1.48 9.926 9.926 0 002.791-5.405 12.39 12.39 0 00-4.746-.94c-.718 0-1.422.061-2.107.178zm4.071-7.967l-.009-.008a9.935 9.935 0 00-7.07-2.93c-1.045 0-2.065.16-3.033.467a40.52 40.52 0 014.086 6.21 23.212 23.212 0 006.026-3.739zm.785.886a24.206 24.206 0 01-6.27 3.903c.337.679.655 1.369.956 2.068a13.7 13.7 0 017.439.658 9.924 9.924 0 00-2.124-6.63zM4.838 17.9a9.924 9.924 0 006.155 2.117 9.973 9.973 0 004.098-.873 39.301 39.301 0 00-2.258-7.964 12.512 12.512 0 00-7.995 6.72z"/><path d="M10.804 10.641a13.582 13.582 0 011.571-.553 39.503 39.503 0 00-.893-1.904 24.2 24.2 0 01-8.46 1.511c-.678 0-1.351-.027-2.02-.082a9.934 9.934 0 002.92 7.475l.002.001a13.592 13.592 0 012.549-3.528 13.585 13.585 0 014.331-2.92zm.13-3.509A39.805 39.805 0 006.794.936a10.006 10.006 0 00-2.872 2.01 9.925 9.925 0 00-2.806 5.5c.629.05 1.264.078 1.906.078 2.778 0 5.442-.492 7.912-1.392z"/></g><defs><clipPath id="clip0"><path fill="#fff" transform="translate(.993 .017)" d="M0 0h20v20H0z"/></clipPath></defs></svg>