<svg width="32" height="21" fill="none" xmlns="http://www.w3.org/2000/svg"><path d="M16.484 13.946c0-2.464-1.172-4.285-3.593-4.968 1.766-.841 2.688-2.116 2.688-4.099 0-3.91-2.923-4.862-6.295-4.862H0v19.628h9.544c3.579 0 6.94-1.711 6.94-5.699zM4.328 3.367h4.061c1.562 0 2.967.438 2.967 2.243 0 1.667-1.093 2.337-2.64 2.337H4.328v-4.58zm-.001 12.944v-5.405h4.717c1.905 0 3.11.792 3.11 2.803 0 1.982-1.438 2.602-3.2 2.602H4.328zm20.734 3.706c3.406 0 5.611-1.53 6.672-4.78h-3.456c-.372 1.213-1.905 1.854-3.094 1.854-2.295 0-3.5-1.34-3.5-3.617h10.284c.325-4.557-2.214-8.441-6.907-8.441-4.345 0-7.295 3.256-7.295 7.521 0 4.427 2.795 7.463 7.296 7.463zM24.94 7.982c1.966 0 2.956 1.152 3.121 3.036h-6.372c.13-1.868 1.373-3.036 3.25-3.036zm-4.05-6.935h7.983v1.934H20.89V1.047z" fill="#000"/></svg>