<svg width="30" height="30" fill="none" xmlns="http://www.w3.org/2000/svg"><g clip-path="url(#clip0)"><path d="M14.906 9.845a5.271 5.271 0 00-5.273 5.273 5.271 5.271 0 005.273 5.272 5.271 5.271 0 005.272-5.272 5.271 5.271 0 00-5.272-5.273zm11.784 3.954A11.856 11.856 0 0016.224 3.334V.618h-2.637v2.715A11.856 11.856 0 003.121 13.8H.406v2.637H3.12a11.856 11.856 0 0010.466 10.466v2.716h2.637v-2.716A11.856 11.856 0 0026.69 16.436h2.716V13.8H26.69zM14.906 24.346c-5.095 0-9.228-4.133-9.228-9.227 0-5.095 4.133-9.228 9.228-9.228 5.094 0 9.227 4.133 9.227 9.228 0 5.094-4.133 9.227-9.227 9.227z" fill="#E7B900"/></g><defs><clipPath id="clip0"><path fill="#fff" transform="translate(.406 .618)" d="M0 0h29v29H0z"/></clipPath></defs></svg>